<svg xmlns="http://www.w3.org/2000/svg" xmlns:xlink="http://www.w3.org/1999/xlink" zoomAndPan="magnify" preserveAspectRatio="xMidYMid meet" version="1.0" viewBox="27.09 128.03 325.91 126.09"><defs><g/><clipPath id="id1"><path d="M 242.054688 148.492188 L 353 148.492188 L 353 170.242188 L 242.054688 170.242188 Z M 242.054688 148.492188 " clip-rule="nonzero"/></clipPath><clipPath id="id2"><path d="M 248.027344 217.371094 L 353 217.371094 L 353 254.121094 L 248.027344 254.121094 Z M 248.027344 217.371094 " clip-rule="nonzero"/></clipPath></defs><g fill="#262626" fill-opacity="1"><g transform="translate(26.996908, 219.205077)"><g><path d="M 34.234375 -39.3125 C 34.460938 -27.644531 33.9375 -17.101562 32.65625 -7.6875 L 32.515625 -6.65625 L 32.3125 -5.71875 C 32.113281 -4.988281 31.71875 -4.363281 31.125 -3.84375 C 30.664062 -3.414062 30.617188 -3.132812 30.984375 -3 L 31.46875 -2.953125 L 32.015625 -2.953125 L 35.421875 -2.765625 L 38.765625 -2.609375 L 39.3125 -2.515625 L 39.796875 -2.40625 C 40.128906 -2.25 40.296875 -1.957031 40.296875 -1.53125 C 40.296875 -0.601562 39.785156 -0.09375 38.765625 0 L 36.5 0.25 L 34.234375 0.390625 C 32.390625 0.523438 30.878906 0.738281 29.703125 1.03125 C 27.503906 1.519531 24.300781 1.519531 20.09375 1.03125 L 15.3125 0.5 C 13.539062 0.394531 11.929688 0.507812 10.484375 0.84375 C 10.128906 0.90625 9.851562 0.820312 9.65625 0.59375 L 9.40625 0.203125 L 9.203125 -0.25 C 8.941406 -1.195312 9.304688 -1.800781 10.296875 -2.0625 C 12.296875 -2.53125 13.90625 -2.78125 15.125 -2.8125 C 16.757812 -2.90625 17.578125 -3.773438 17.578125 -5.421875 C 17.617188 -23.117188 15.894531 -49.140625 12.40625 -83.484375 C 12.25 -85.328125 11.332031 -86.164062 9.65625 -86 L 7.578125 -86 L 5.5625 -86.203125 C 3.882812 -86.265625 2.523438 -86.164062 1.484375 -85.90625 C 0.953125 -85.769531 0.539062 -85.898438 0.25 -86.296875 C 0.0820312 -86.492188 0.046875 -86.722656 0.140625 -86.984375 L 0.546875 -87.578125 C 1.203125 -88.554688 2.21875 -89.03125 3.59375 -89 C 6.914062 -88.875 11.476562 -89.171875 17.28125 -89.890625 L 24.140625 -90.78125 C 26.703125 -91.039062 28.984375 -91.171875 30.984375 -91.171875 L 32.65625 -91.171875 C 33.34375 -91.171875 33.898438 -91.101562 34.328125 -90.96875 C 35.546875 -90.738281 36.238281 -90.164062 36.40625 -89.25 C 36.5 -88.5 35.988281 -87.925781 34.875 -87.53125 L 33.390625 -87.078125 L 31.921875 -86.734375 C 31.617188 -86.609375 31.15625 -86.53125 30.53125 -86.5 L 29.15625 -86.296875 L 28.625 -86.140625 L 28.21875 -85.859375 C 27.925781 -85.554688 27.960938 -85.222656 28.328125 -84.859375 C 29.335938 -83.941406 29.957031 -82.726562 30.1875 -81.21875 L 30.390625 -79.15625 L 30.484375 -77.1875 L 31.765625 -67.78125 L 32.90625 -58.265625 C 33.726562 -51.046875 34.171875 -44.726562 34.234375 -39.3125 Z M 34.234375 -39.3125 "/></g></g></g><g fill="#262626" fill-opacity="1"><g transform="translate(77.138463, 219.205077)"><g><path d="M 53.046875 -23.296875 C 52.816406 -20.378906 52.71875 -17.71875 52.75 -15.3125 C 52.78125 -12 53.023438 -8.960938 53.484375 -6.203125 C 54.078125 -2.628906 52.4375 0.960938 48.5625 4.578125 C 47.3125 5.765625 45.867188 6.160156 44.234375 5.765625 C 43.578125 5.597656 43.148438 5.1875 42.953125 4.53125 L 42.75 3.640625 L 42.65625 2.765625 C 42.257812 0.628906 42.128906 -1.898438 42.265625 -4.828125 L 42.5625 -8.625 L 42.796875 -12.40625 C 43.023438 -15.789062 42.960938 -20.289062 42.609375 -25.90625 L 42.21875 -32.65625 L 42.015625 -39.453125 L 42.0625 -44.875 L 42.0625 -50.296875 C 42.03125 -54.460938 41.800781 -58.070312 41.375 -61.125 L 41.03125 -62.84375 C 40.207031 -66.757812 37.628906 -68.007812 33.296875 -66.59375 L 32.953125 -66.390625 L 32.5625 -66.203125 C 32.257812 -66.066406 31.976562 -66.082031 31.71875 -66.25 L 32.359375 -66.796875 L 33.046875 -67.234375 L 34.234375 -67.625 L 35.421875 -67.921875 C 34.628906 -68.117188 33.609375 -68.003906 32.359375 -67.578125 C 29.203125 -66.492188 26.59375 -64.296875 24.53125 -60.984375 C 24 -60.160156 23.914062 -59.109375 24.28125 -57.828125 L 24.828125 -56.25 L 25.3125 -54.671875 C 27.90625 -43.378906 27.757812 -31.3125 24.875 -18.46875 C 24.539062 -17.019531 24.394531 -15.835938 24.4375 -14.921875 C 24.664062 -11.179688 22.578125 -7.046875 18.171875 -2.515625 C 16.597656 -0.867188 15.21875 0.296875 14.03125 0.984375 C 12.65625 1.773438 11.359375 1.804688 10.140625 1.078125 L 7.1875 -0.640625 L 4.140625 -2.3125 C 2.597656 -3.101562 1.644531 -4.367188 1.28125 -6.109375 C 1.144531 -6.660156 1.0625 -7.429688 1.03125 -8.421875 L 0.9375 -10.6875 C 0.28125 -17.8125 0.25 -27.023438 0.84375 -38.328125 L 1.625 -52.0625 C 1.914062 -57.414062 2.0625 -62.015625 2.0625 -65.859375 C 2.0625 -69.140625 2.671875 -71.15625 3.890625 -71.90625 C 4.941406 -72.5625 7.503906 -72.773438 11.578125 -72.546875 C 13.972656 -72.421875 15.925781 -71.703125 17.4375 -70.390625 C 18.03125 -69.859375 18.617188 -69.203125 19.203125 -68.421875 L 20.734375 -66.15625 C 21.554688 -64.875 22.3125 -64.234375 23 -64.234375 C 23.59375 -64.234375 24.378906 -64.789062 25.359375 -65.90625 C 27.765625 -68.664062 31.378906 -70.023438 36.203125 -69.984375 C 40.304688 -69.984375 43.3125 -69.097656 45.21875 -67.328125 C 46.789062 -65.847656 48.085938 -63.191406 49.109375 -59.359375 C 51.242188 -51.046875 52.554688 -39.023438 53.046875 -23.296875 Z M 53.046875 -23.296875 "/></g></g></g><g fill="#262626" fill-opacity="1"><g transform="translate(141.366939, 219.205077)"><g><path d="M 15.015625 -50.234375 C 14.953125 -47.910156 15.164062 -46.335938 15.65625 -45.515625 C 16.15625 -44.722656 17.390625 -43.96875 19.359375 -43.25 L 23.15625 -41.8125 C 24.59375 -41.289062 25.820312 -40.785156 26.84375 -40.296875 C 29.570312 -38.984375 31.738281 -37.421875 33.34375 -35.609375 C 36.195312 -32.421875 38.070312 -29.003906 38.96875 -25.359375 C 39.976562 -21.128906 39.429688 -17.238281 37.328125 -13.6875 L 35.609375 -10.78125 C 34.953125 -9.664062 34.328125 -8.734375 33.734375 -7.984375 C 32.160156 -5.910156 30.375 -4.445312 28.375 -3.59375 C 27.125 -3.039062 26.140625 -2.796875 25.421875 -2.859375 C 16.585938 -3.679688 10.425781 -6.4375 6.9375 -11.125 L 5.078125 -13.5 L 3.203125 -15.859375 C 1.828125 -17.734375 0.90625 -19.523438 0.4375 -21.234375 L 0.25 -21.71875 L 0.09375 -22.3125 C 0.03125 -22.738281 0.144531 -23.019531 0.4375 -23.15625 C 0.707031 -23.28125 0.972656 -23.164062 1.234375 -22.8125 L 1.484375 -22.359375 L 1.71875 -21.875 C 2.476562 -20.457031 3.710938 -19.207031 5.421875 -18.125 L 7.734375 -16.796875 L 10.046875 -15.515625 C 11.097656 -14.828125 12.082031 -14.84375 13 -15.5625 L 15.375 -17.390625 C 16.257812 -18.109375 16.992188 -18.78125 17.578125 -19.40625 C 19.128906 -21.007812 20.148438 -22.75 20.640625 -24.625 C 21.390625 -27.476562 20.4375 -29.679688 17.78125 -31.234375 L 16.0625 -32.21875 L 14.328125 -33.15625 C 13.015625 -33.90625 11.945312 -34.609375 11.125 -35.265625 C 4.625 -40.617188 1.3125 -46.148438 1.1875 -51.859375 C 1.15625 -54.160156 1.894531 -56.410156 3.40625 -58.609375 C 5.007812 -60.972656 6.925781 -62.335938 9.15625 -62.703125 L 10.984375 -63.140625 L 12.859375 -63.734375 C 14.367188 -64.191406 15.648438 -64.375 16.703125 -64.28125 C 20.671875 -63.914062 23.804688 -62.46875 26.109375 -59.9375 C 28.472656 -57.34375 29.601562 -53.976562 29.5 -49.84375 C 29.5 -49.414062 29.453125 -49.085938 29.359375 -48.859375 C 29.222656 -48.535156 28.976562 -48.335938 28.625 -48.265625 C 28.289062 -48.203125 28.007812 -48.300781 27.78125 -48.5625 L 27.484375 -48.90625 L 27.28125 -49.296875 L 25.609375 -52.65625 C 24.953125 -54.03125 24.378906 -55.113281 23.890625 -55.90625 C 22.546875 -58.207031 21.332031 -59.359375 20.25 -59.359375 C 19.164062 -59.316406 17.984375 -58.148438 16.703125 -55.859375 L 15.953125 -54.46875 L 15.3125 -53.09375 C 14.882812 -52.039062 14.785156 -51.085938 15.015625 -50.234375 Z M 15.015625 -50.234375 "/></g></g></g><g fill="#262626" fill-opacity="1"><g transform="translate(192.986143, 219.205077)"><g><path d="M 49.703125 -14.578125 C 49.046875 -7.972656 47.910156 -2.015625 46.296875 3.296875 L 46.109375 3.75 L 45.859375 4.28125 C 45.753906 4.675781 45.882812 4.957031 46.25 5.125 C 46.507812 5.25 46.753906 5.164062 46.984375 4.875 L 47.28125 4.4375 L 47.53125 4.03125 L 47.921875 3.6875 L 48.375 3.40625 L 48.421875 3.984375 L 48.375 4.484375 C 46.957031 7.867188 44.753906 10.53125 41.765625 12.46875 C 38.484375 14.5625 35.117188 15.195312 31.671875 14.375 C 17.816406 11.0625 10.265625 1.722656 9.015625 -13.640625 C 7.898438 -27.691406 7.617188 -41.253906 8.171875 -54.328125 C 8.242188 -55.578125 7.472656 -56.132812 5.859375 -56 L -0.734375 -55.40625 C -3.296875 -55.175781 -5.5 -55.113281 -7.34375 -55.21875 L -8.078125 -55.265625 L -8.859375 -55.359375 C -9.453125 -55.492188 -9.765625 -55.789062 -9.796875 -56.25 C -9.828125 -56.644531 -9.582031 -56.957031 -9.0625 -57.1875 L -8.328125 -57.4375 L -7.640625 -57.625 C -2.210938 -58.9375 2.367188 -59.707031 6.109375 -59.9375 C 7.878906 -60.039062 8.816406 -60.976562 8.921875 -62.75 C 9.441406 -71.914062 10.195312 -79.863281 11.1875 -86.59375 L 11.28125 -87.96875 L 11.375 -89.453125 C 11.539062 -90.535156 12.050781 -91.0625 12.90625 -91.03125 L 15.265625 -91.078125 C 16.253906 -91.078125 17.0625 -91.023438 17.6875 -90.921875 C 19.488281 -90.660156 20.832031 -89.773438 21.71875 -88.265625 C 22.96875 -86.191406 23.890625 -83.644531 24.484375 -80.625 L 25.078125 -76.640625 L 25.5625 -72.609375 C 26.050781 -68.859375 26.445312 -65.242188 26.75 -61.765625 C 26.84375 -60.648438 27.5625 -60.09375 28.90625 -60.09375 L 32.796875 -60.09375 L 36.6875 -60.140625 C 39.675781 -60.078125 42.253906 -59.78125 44.421875 -59.25 L 44.96875 -59.15625 L 45.515625 -59.109375 C 45.941406 -59.003906 46.253906 -58.773438 46.453125 -58.421875 L 45.359375 -58.015625 L 44.328125 -57.734375 L 29.75 -56.203125 C 28.238281 -56.035156 27.484375 -55.28125 27.484375 -53.9375 L 27.34375 -30.4375 L 27.28125 -7 C 27.320312 -5.289062 27.503906 -3.1875 27.828125 -0.6875 L 28.265625 2.515625 L 28.71875 5.671875 L 28.859375 6.359375 L 29.109375 7 C 30.222656 10.3125 31.914062 10.738281 34.1875 8.28125 C 41.28125 0.5625 45.726562 -8.140625 47.53125 -17.828125 L 47.578125 -18.515625 L 47.671875 -19.203125 C 47.804688 -19.703125 48.085938 -19.953125 48.515625 -19.953125 C 49.078125 -19.921875 49.335938 -19.65625 49.296875 -19.15625 L 49.15625 -18.515625 L 49.15625 -17.875 L 49.453125 -16.109375 Z M 49.703125 -14.578125 "/></g></g></g><g fill="#262626" fill-opacity="1"><g transform="translate(252.535398, 219.205077)"><g><path d="M 32.65625 -35.0625 C 32.519531 -39.039062 30.8125 -42.082031 27.53125 -44.1875 C 25.925781 -45.195312 24.085938 -45.3125 22.015625 -44.53125 C 19.953125 -43.738281 18.800781 -42.40625 18.5625 -40.53125 C 18.4375 -39.550781 18.242188 -38.421875 17.984375 -37.140625 L 17.1875 -33.796875 C 16.53125 -30.960938 16.15625 -28.710938 16.0625 -27.046875 C 15.894531 -23.796875 16.535156 -20.789062 17.984375 -18.03125 C 19.492188 -15.207031 21.59375 -13.15625 24.28125 -11.875 C 26.25 -10.882812 27.726562 -11.273438 28.71875 -13.046875 C 31.863281 -18.796875 33.242188 -24.773438 32.859375 -30.984375 Z M 0 -26.984375 C -0.0625 -35.753906 2.269531 -42.960938 7 -48.609375 C 9.226562 -51.242188 11.96875 -53.035156 15.21875 -53.984375 C 18.664062 -54.972656 22.046875 -54.804688 25.359375 -53.484375 C 30.785156 -51.316406 34.613281 -46.820312 36.84375 -40 C 37.4375 -38.21875 37.765625 -36.097656 37.828125 -33.640625 L 37.875 -30.390625 L 37.78125 -27.09375 C 37.613281 -16.84375 35.691406 -9.238281 32.015625 -4.28125 C 29.085938 -0.3125 25.457031 0.898438 21.125 -0.640625 L 14.625 -2.703125 C 12.101562 -3.554688 10.085938 -4.675781 8.578125 -6.0625 C 2.992188 -11.144531 0.132812 -18.117188 0 -26.984375 Z M 0 -26.984375 "/></g></g></g><g fill="#262626" fill-opacity="1"><g transform="translate(300.26346, 219.205077)"><g><path d="M 32.65625 -35.0625 C 32.519531 -39.039062 30.8125 -42.082031 27.53125 -44.1875 C 25.925781 -45.195312 24.085938 -45.3125 22.015625 -44.53125 C 19.953125 -43.738281 18.800781 -42.40625 18.5625 -40.53125 C 18.4375 -39.550781 18.242188 -38.421875 17.984375 -37.140625 L 17.1875 -33.796875 C 16.53125 -30.960938 16.15625 -28.710938 16.0625 -27.046875 C 15.894531 -23.796875 16.535156 -20.789062 17.984375 -18.03125 C 19.492188 -15.207031 21.59375 -13.15625 24.28125 -11.875 C 26.25 -10.882812 27.726562 -11.273438 28.71875 -13.046875 C 31.863281 -18.796875 33.242188 -24.773438 32.859375 -30.984375 Z M 0 -26.984375 C -0.0625 -35.753906 2.269531 -42.960938 7 -48.609375 C 9.226562 -51.242188 11.96875 -53.035156 15.21875 -53.984375 C 18.664062 -54.972656 22.046875 -54.804688 25.359375 -53.484375 C 30.785156 -51.316406 34.613281 -46.820312 36.84375 -40 C 37.4375 -38.21875 37.765625 -36.097656 37.828125 -33.640625 L 37.875 -30.390625 L 37.78125 -27.09375 C 37.613281 -16.84375 35.691406 -9.238281 32.015625 -4.28125 C 29.085938 -0.3125 25.457031 0.898438 21.125 -0.640625 L 14.625 -2.703125 C 12.101562 -3.554688 10.085938 -4.675781 8.578125 -6.0625 C 2.992188 -11.144531 0.132812 -18.117188 0 -26.984375 Z M 0 -26.984375 "/></g></g></g><g clip-path="url(#id1)"><path fill="#262626" d="M 310.546875 159.347656 C 310.75 159.367188 310.773438 159.441406 310.855469 159.429688 C 310.792969 159.414062 310.832031 159.402344 310.867188 159.390625 C 310.757812 159.382812 310.523438 159.257812 310.546875 159.347656 Z M 308.757812 156.234375 C 308.75 156.070312 308.753906 155.910156 308.710938 155.761719 C 308.730469 155.886719 308.714844 156.054688 308.722656 156.230469 C 308.726562 156.316406 308.730469 156.410156 308.742188 156.496094 C 308.757812 156.585938 308.78125 156.667969 308.8125 156.746094 C 308.792969 156.660156 308.777344 156.574219 308.769531 156.488281 C 308.765625 156.402344 308.761719 156.316406 308.757812 156.234375 Z M 310.074219 158.871094 C 310.058594 158.890625 310.066406 158.929688 310.105469 158.917969 C 310.226562 158.902344 310.425781 159.140625 310.488281 159.050781 C 310.414062 159.027344 310.332031 158.988281 310.257812 158.949219 C 310.183594 158.914062 310.117188 158.882812 310.074219 158.871094 Z M 311.320312 159.566406 C 311.328125 159.527344 311.496094 159.5625 311.480469 159.511719 C 311.390625 159.484375 311.179688 159.488281 311.019531 159.417969 C 311.019531 159.496094 311.292969 159.5 311.320312 159.566406 Z M 312.109375 159.683594 C 312.140625 159.742188 312.316406 159.726562 312.4375 159.730469 C 312.460938 159.617188 312.253906 159.734375 312.109375 159.683594 Z M 349.226562 166.09375 C 349.359375 166.21875 349.511719 166.402344 349.605469 166.445312 C 349.625 166.429688 349.625 166.386719 349.582031 166.386719 C 349.449219 166.363281 349.316406 166.042969 349.226562 166.09375 Z M 348.710938 165.144531 C 348.675781 165.167969 348.5625 165.023438 348.539062 165.070312 C 348.597656 165.160156 348.777344 165.300781 348.882812 165.460938 C 348.921875 165.398438 348.691406 165.214844 348.710938 165.144531 Z M 349.003906 165.582031 C 349.097656 165.65625 349.265625 165.886719 349.28125 165.792969 C 349.101562 165.667969 349.113281 165.589844 349.035156 165.550781 C 349.082031 165.601562 349.042969 165.589844 349.003906 165.582031 Z M 352.386719 169.574219 C 352.164062 169.359375 351.917969 168.910156 351.601562 168.660156 C 351.902344 168.96875 352.089844 169.339844 352.386719 169.574219 Z M 308.40625 154.425781 C 308.457031 154.445312 308.410156 154.53125 308.371094 154.617188 C 308.335938 154.695312 308.292969 154.796875 308.363281 154.792969 C 308.5 154.574219 308.53125 154.460938 308.585938 154.328125 C 308.550781 154.289062 308.476562 154.363281 308.40625 154.425781 Z M 310.011719 151.957031 C 310.128906 151.875 310.257812 151.804688 310.390625 151.730469 C 310.519531 151.652344 310.660156 151.578125 310.8125 151.507812 C 311.792969 150.964844 313.070312 150.265625 314.484375 149.8125 C 314.316406 149.855469 314.109375 149.917969 313.875 149.996094 C 313.636719 150.066406 313.390625 150.191406 313.132812 150.300781 C 312.609375 150.507812 312.09375 150.8125 311.675781 151.019531 C 311.640625 151.039062 311.609375 151.054688 311.613281 151.03125 C 311.746094 150.9375 311.945312 150.835938 312.019531 150.753906 C 311.863281 150.824219 311.765625 150.890625 311.671875 150.960938 C 311.582031 151.027344 311.492188 151.101562 311.351562 151.195312 C 311.085938 151.367188 310.78125 151.472656 310.488281 151.601562 C 310.203125 151.742188 309.914062 151.886719 309.6875 152.101562 C 309.546875 152.25 309.425781 152.464844 309.425781 152.570312 C 309.570312 152.308594 309.765625 152.105469 310.011719 151.957031 Z M 348.175781 164.453125 C 348.195312 164.386719 348.058594 164.257812 347.980469 164.152344 C 347.878906 164.199219 348.109375 164.304688 348.175781 164.453125 Z M 316.636719 148.816406 C 316.363281 148.839844 316.210938 148.917969 316.101562 148.988281 C 316.179688 148.953125 316.292969 148.921875 316.398438 148.894531 C 316.503906 148.871094 316.597656 148.847656 316.636719 148.816406 Z M 350.726562 168.761719 C 350.617188 168.691406 350.511719 168.617188 350.40625 168.546875 C 350.332031 168.601562 350.6875 168.832031 350.929688 169.0625 C 350.886719 168.972656 350.757812 168.84375 350.726562 168.761719 Z M 316.359375 157.347656 C 316.316406 157.265625 316.070312 157.515625 316.085938 157.554688 C 316.238281 157.433594 316.214844 157.402344 316.359375 157.347656 Z M 315.9375 157.644531 C 315.855469 157.664062 315.710938 157.796875 315.714844 157.851562 C 315.773438 157.785156 315.953125 157.695312 315.9375 157.644531 Z M 344.417969 160.695312 C 344.222656 160.527344 344.199219 160.554688 344.066406 160.394531 C 344 160.449219 344.382812 160.714844 344.417969 160.695312 Z M 344.582031 160.859375 C 344.632812 160.953125 344.835938 161.109375 344.902344 161.105469 C 344.804688 161.039062 344.632812 160.839844 344.582031 160.859375 Z M 352.90625 170.253906 C 352.28125 169.8125 351.597656 169.34375 350.882812 168.867188 C 351.21875 169.183594 351.484375 169.546875 351.839844 169.921875 C 351.523438 169.648438 351.128906 169.164062 350.828125 168.828125 C 350.820312 168.824219 350.808594 168.816406 350.800781 168.8125 C 350.816406 168.917969 351.046875 169.132812 351.179688 169.296875 C 350.699219 168.929688 350.136719 168.476562 349.53125 167.976562 C 342.265625 163.253906 331.851562 157.53125 325.816406 155.863281 C 325.738281 155.851562 325.664062 155.835938 325.585938 155.824219 C 325.324219 155.78125 325.058594 155.742188 324.792969 155.699219 C 324.523438 155.660156 324.253906 155.644531 323.980469 155.613281 C 322.886719 155.515625 321.753906 155.503906 320.660156 155.675781 C 319.5625 155.84375 318.511719 156.195312 317.558594 156.714844 C 316.601562 157.230469 315.746094 157.929688 314.957031 158.648438 C 314.902344 158.644531 314.851562 158.730469 314.878906 158.632812 C 314.820312 158.679688 314.832031 158.703125 314.84375 158.726562 C 314.660156 158.851562 314.644531 158.851562 314.46875 158.976562 C 314.414062 159.019531 314.371094 159.046875 314.296875 159.109375 C 314.210938 159.1875 314.121094 159.265625 314.027344 159.34375 L 313.957031 159.402344 C 313.929688 159.417969 313.898438 159.425781 313.871094 159.4375 L 313.695312 159.496094 C 313.636719 159.519531 313.578125 159.539062 313.519531 159.554688 C 313.460938 159.570312 313.398438 159.585938 313.363281 159.597656 C 313.027344 159.675781 312.710938 159.707031 312.535156 159.671875 C 312.757812 159.652344 312.988281 159.617188 313.226562 159.574219 C 313.285156 159.5625 313.339844 159.550781 313.40625 159.535156 C 313.480469 159.515625 313.566406 159.492188 313.644531 159.46875 C 313.722656 159.441406 313.804688 159.414062 313.882812 159.386719 C 313.925781 159.375 313.957031 159.347656 313.988281 159.320312 L 314.085938 159.238281 C 314.269531 159.078125 314.457031 158.914062 314.640625 158.753906 C 314.796875 158.617188 314.949219 158.480469 315.09375 158.34375 C 314.875 158.460938 314.601562 158.671875 314.347656 158.886719 C 314.246094 158.960938 314.019531 159.183594 313.839844 159.28125 C 313.628906 159.339844 313.421875 159.371094 313.300781 159.351562 C 313.023438 159.503906 312.828125 159.410156 312.664062 159.539062 C 312.625 159.457031 312.433594 159.492188 312.210938 159.527344 C 311.988281 159.566406 311.726562 159.589844 311.582031 159.558594 C 311.566406 159.464844 311.808594 159.542969 311.890625 159.53125 C 311.824219 159.5 311.761719 159.449219 311.585938 159.472656 C 311.664062 159.457031 311.660156 159.402344 311.785156 159.40625 C 311.554688 159.347656 311.398438 159.324219 311.25 159.304688 C 311.101562 159.28125 310.953125 159.265625 310.757812 159.1875 C 310.777344 159.167969 310.855469 159.199219 310.863281 159.171875 C 310.519531 159.042969 310.011719 158.777344 309.664062 158.503906 C 309.703125 158.476562 309.78125 158.558594 309.878906 158.632812 C 309.878906 158.566406 309.539062 158.300781 309.765625 158.398438 C 309.644531 158.28125 309.59375 158.230469 309.542969 158.179688 C 309.492188 158.132812 309.441406 158.085938 309.367188 157.941406 C 309.433594 158.027344 309.496094 158.082031 309.550781 158.128906 C 309.070312 157.523438 308.742188 156.5625 308.742188 155.0625 C 308.742188 155.0625 308.789062 154.988281 308.875 154.863281 C 308.917969 154.632812 308.769531 154.464844 308.835938 154.214844 C 308.75 154.195312 308.695312 154.492188 308.652344 154.378906 C 308.785156 154.21875 308.867188 154.074219 308.9375 153.933594 C 309.007812 153.792969 309.054688 153.648438 309.136719 153.511719 C 309.402344 153.21875 309.523438 153.199219 309.722656 153.074219 C 309.902344 152.851562 310.023438 152.664062 310.175781 152.484375 C 310.335938 152.3125 310.515625 152.136719 310.804688 151.921875 C 310.941406 151.832031 311.054688 151.777344 311.167969 151.703125 C 311.273438 151.628906 311.292969 151.566406 311.292969 151.566406 C 311.351562 151.527344 311.46875 151.503906 311.570312 151.433594 C 311.726562 151.316406 311.835938 151.164062 311.933594 151.097656 C 312.019531 151.039062 312.300781 150.9375 312.375 150.898438 C 312.691406 150.710938 313.027344 150.539062 313.394531 150.363281 C 313.523438 150.304688 313.65625 150.242188 313.789062 150.179688 C 313.925781 150.132812 314.066406 150.082031 314.207031 150.03125 C 314.488281 149.933594 314.777344 149.832031 315.070312 149.730469 C 315.371094 149.65625 315.675781 149.578125 315.984375 149.503906 C 316.140625 149.464844 316.296875 149.429688 316.453125 149.390625 C 316.609375 149.359375 316.769531 149.339844 316.925781 149.316406 C 317.246094 149.265625 317.566406 149.21875 317.886719 149.171875 C 318.050781 149.140625 318.210938 149.136719 318.371094 149.125 L 318.855469 149.097656 C 319.179688 149.078125 319.5 149.058594 319.820312 149.039062 C 320.140625 149.042969 320.457031 149.050781 320.769531 149.054688 C 321.109375 149.0625 321.464844 149.050781 321.8125 149.082031 C 322.160156 149.121094 322.503906 149.160156 322.835938 149.203125 C 324.191406 149.347656 325.535156 149.664062 326.832031 150.0625 C 328.132812 150.457031 329.40625 150.941406 330.671875 151.492188 C 330.738281 151.523438 331.242188 151.773438 331.617188 151.960938 C 333.953125 153.074219 336.550781 154.605469 339.058594 156.363281 C 341.5625 158.121094 343.976562 160.097656 346.042969 161.996094 C 346.046875 162.054688 346.160156 162.121094 346.042969 162.082031 C 346.109375 162.152344 346.136719 162.144531 346.15625 162.128906 C 346.347656 162.347656 346.347656 162.363281 346.53125 162.578125 C 346.953125 163.074219 347.691406 163.746094 347.867188 164.105469 C 347.199219 163.363281 346.4375 162.503906 345.65625 161.824219 C 346.035156 162.34375 346.917969 163.082031 347.109375 163.570312 C 347.410156 163.757812 347.453125 163.988281 347.671875 164.0625 C 347.597656 164.230469 348.304688 164.691406 348.488281 164.957031 C 348.441406 165.039062 348.292969 164.800781 348.226562 164.734375 C 348.253906 164.8125 348.269531 164.898438 348.429688 165.019531 C 348.351562 164.96875 348.320312 165.007812 348.21875 164.90625 C 348.515625 165.367188 348.703125 165.449219 349.011719 165.824219 C 348.984375 165.832031 348.917969 165.753906 348.898438 165.773438 C 349.164062 166.101562 349.621094 166.609375 350.019531 166.921875 C 349.980469 166.949219 349.886719 166.851562 349.789062 166.75 C 349.777344 166.828125 350.175781 167.164062 349.914062 167.027344 C 350.207031 167.324219 350.191406 167.246094 350.449219 167.542969 C 350.351562 167.460938 350.273438 167.402344 350.203125 167.347656 C 351.246094 168.417969 352.160156 169.40625 352.910156 170.257812 C 352.910156 170.257812 352.90625 170.257812 352.90625 170.253906 Z M 286.0625 158.417969 C 286.0625 158.347656 286.277344 158.164062 286.242188 158.070312 C 286.199219 158.132812 286.121094 158.246094 286.074219 158.332031 C 286.023438 158.417969 285.988281 158.46875 286.0625 158.417969 Z M 283.976562 159.78125 C 283.957031 159.730469 284.328125 159.742188 284.304688 159.683594 C 284.28125 159.667969 284.152344 159.695312 284.054688 159.71875 C 283.957031 159.742188 283.882812 159.769531 283.976562 159.78125 Z M 285.304688 159.105469 C 285.507812 158.976562 285.644531 158.898438 285.707031 158.785156 C 285.644531 158.824219 285.339844 159.042969 285.304688 159.105469 Z M 286.476562 157.886719 C 286.558594 157.746094 286.597656 157.613281 286.53125 157.613281 C 286.492188 157.730469 286.460938 157.835938 286.476562 157.886719 Z M 278.390625 157.5625 C 278.265625 157.449219 278.121094 157.339844 277.972656 157.300781 C 278.023438 157.375 278.3125 157.640625 278.390625 157.5625 Z M 286.367188 155.0625 C 286.363281 155.175781 286.359375 155.277344 286.355469 155.386719 C 286.34375 155.992188 286.414062 155.332031 286.367188 155.0625 Z M 284.007812 151.492188 C 284.152344 151.585938 284.304688 151.6875 284.4375 151.78125 C 284.570312 151.878906 284.691406 151.960938 284.78125 151.996094 C 284.667969 151.910156 284.511719 151.738281 284.351562 151.625 C 284.195312 151.511719 284.054688 151.433594 284.007812 151.492188 Z M 244.460938 167.351562 C 244.457031 167.242188 244.027344 167.773438 244.0625 167.761719 Z M 246.121094 165.351562 C 246.027344 165.5 245.898438 165.53125 245.90625 165.625 C 246.035156 165.496094 246.191406 165.425781 246.121094 165.351562 Z M 285.972656 158.09375 C 285.984375 158.140625 286.074219 158.03125 286.128906 157.902344 C 286.1875 157.773438 286.238281 157.636719 286.222656 157.644531 C 286.144531 157.796875 286.074219 157.953125 285.972656 158.09375 Z M 284.113281 159.566406 C 284.265625 159.496094 284.386719 159.542969 284.421875 159.453125 C 284.257812 159.503906 284.097656 159.464844 284.113281 159.566406 Z M 286.832031 156.574219 C 286.777344 156.816406 286.710938 157.058594 286.636719 157.253906 C 286.683594 157.238281 286.722656 157.148438 286.757812 157.042969 C 286.789062 156.9375 286.8125 156.8125 286.84375 156.714844 C 286.839844 157 286.8125 157.320312 286.714844 157.671875 C 286.628906 158.019531 286.476562 158.40625 286.21875 158.777344 C 285.964844 159.148438 285.59375 159.503906 285.152344 159.75 C 284.707031 160.003906 284.210938 160.144531 283.726562 160.199219 C 283.242188 160.257812 282.769531 160.234375 282.316406 160.164062 C 282.089844 160.128906 281.863281 160.082031 281.644531 160.023438 L 281.558594 159.996094 L 281.433594 159.957031 C 281.351562 159.933594 281.265625 159.902344 281.183594 159.871094 L 280.941406 159.773438 C 280.871094 159.722656 280.808594 159.65625 280.742188 159.601562 C 280.574219 159.4375 280.40625 159.277344 280.242188 159.121094 C 280.117188 159.003906 279.992188 158.886719 279.871094 158.773438 C 279.628906 158.539062 279.386719 158.339844 279.164062 158.128906 C 279.25 158.046875 278.882812 157.691406 278.601562 157.476562 C 278.707031 157.5 278.667969 157.449219 278.78125 157.449219 C 278.820312 157.511719 278.988281 157.589844 279.117188 157.714844 C 279.070312 157.636719 278.925781 157.515625 278.75 157.394531 C 278.574219 157.28125 278.378906 157.152344 278.238281 157.039062 C 278.207031 157.070312 278.355469 157.132812 278.398438 157.179688 C 278.410156 157.207031 278.335938 157.164062 278.25 157.109375 C 278.160156 157.058594 278.054688 157.003906 278.011719 157.003906 C 278.234375 157.199219 278.351562 157.265625 278.558594 157.394531 C 278.5 157.429688 278.339844 157.304688 278.160156 157.164062 C 277.972656 157.039062 277.773438 156.890625 277.660156 156.859375 C 277.589844 156.796875 277.648438 156.808594 277.714844 156.839844 C 277.570312 156.738281 277.414062 156.65625 277.269531 156.566406 C 277.097656 156.464844 276.921875 156.394531 276.761719 156.347656 C 276.816406 156.378906 276.929688 156.429688 277.070312 156.5 C 277.207031 156.574219 277.371094 156.664062 277.535156 156.746094 C 277.402344 156.730469 277.238281 156.640625 277.0625 156.535156 C 276.878906 156.4375 276.675781 156.335938 276.480469 156.273438 C 276.488281 156.203125 276.585938 156.246094 276.695312 156.296875 C 276.628906 156.199219 276.410156 156.171875 276.40625 156.242188 C 276.292969 156.171875 276.117188 156.125 276.011719 156.132812 C 276.613281 156.273438 277.140625 156.699219 277.6875 156.980469 C 277.691406 156.949219 277.609375 156.90625 277.558594 156.875 C 277.652344 156.84375 277.941406 157.113281 278.234375 157.273438 C 278.199219 157.269531 278.15625 157.25 278.109375 157.238281 C 278.289062 157.433594 278.757812 157.667969 278.925781 157.886719 C 278.304688 157.402344 277.65625 156.996094 276.980469 156.671875 C 276.300781 156.355469 275.59375 156.113281 274.84375 155.898438 C 274.964844 155.867188 275.144531 155.90625 275.328125 155.949219 C 275.515625 155.992188 275.714844 156.027344 275.859375 156.058594 C 275.738281 155.976562 275.214844 155.867188 275.027344 155.820312 C 275.171875 155.804688 275.371094 155.863281 275.582031 155.921875 C 275.792969 155.976562 276 156.082031 276.191406 156.105469 C 274.40625 155.4375 272.742188 155.40625 270.605469 155.75 C 271.488281 155.667969 272.0625 155.574219 272.765625 155.570312 C 272.746094 155.597656 272.710938 155.613281 272.636719 155.613281 C 272.859375 155.628906 273.203125 155.613281 273.539062 155.636719 C 273.875 155.667969 274.222656 155.675781 274.445312 155.75 C 274.410156 155.792969 274.21875 155.714844 274.113281 155.726562 C 274.308594 155.769531 274.542969 155.835938 274.804688 155.871094 C 273.742188 155.808594 272.640625 155.777344 271.457031 155.992188 C 271.4375 155.960938 271.324219 155.988281 271.367188 155.917969 C 271.035156 155.957031 270.703125 155.984375 270.367188 156.035156 L 269.363281 156.214844 C 269.019531 156.289062 268.671875 156.367188 268.328125 156.441406 C 267.988281 156.519531 267.648438 156.601562 267.316406 156.679688 C 266.785156 156.8125 266.269531 156.945312 265.765625 157.082031 C 258.46875 160 248.148438 166.046875 242.199219 170.257812 C 242.246094 170.203125 242.292969 170.148438 242.34375 170.09375 C 242.296875 170.148438 242.246094 170.203125 242.199219 170.257812 C 242.378906 169.980469 242.941406 169.410156 242.480469 169.941406 C 243.175781 169.160156 243.992188 168.28125 244.914062 167.339844 C 245.019531 167.1875 245.105469 167.070312 245.339844 166.847656 C 245.28125 166.859375 245.1875 166.957031 245.105469 167.019531 C 245.121094 166.914062 245.296875 166.855469 245.390625 166.738281 C 244.84375 167.15625 244.296875 167.71875 243.757812 168.265625 C 243.878906 168.09375 244.203125 167.710938 244.519531 167.410156 C 244.285156 167.578125 243.984375 167.917969 243.722656 168.152344 C 243.925781 167.871094 243.640625 168.15625 243.503906 168.261719 C 244.753906 166.929688 245.152344 166.488281 246.550781 165.054688 C 246.292969 165.285156 246.117188 165.429688 245.9375 165.65625 C 245.890625 165.707031 245.75 165.75 245.851562 165.648438 C 245.800781 165.648438 245.703125 165.894531 245.589844 165.875 C 245.652344 165.609375 246.304688 165.070312 246.558594 164.722656 C 246.515625 164.714844 246.414062 164.835938 246.417969 164.742188 C 246.238281 164.917969 246.542969 164.753906 246.253906 164.988281 C 246.324219 164.6875 246.742188 164.398438 246.984375 164.167969 C 247.191406 163.972656 247.410156 163.710938 247.726562 163.441406 C 247.5 163.535156 247.085938 164.011719 246.773438 164.28125 C 246.6875 164.34375 246.78125 164.238281 246.84375 164.1875 C 247.375 163.644531 248.320312 162.714844 248.835938 162.257812 C 248.5625 162.367188 248.351562 162.667969 247.964844 163.019531 C 247.957031 162.996094 248.03125 162.9375 248.078125 162.886719 C 247.511719 163.339844 246.421875 164.417969 245.773438 165.15625 C 245.582031 165.382812 245.464844 165.574219 245.300781 165.746094 C 245.125 165.929688 244.75 166.289062 244.640625 166.554688 C 244.359375 166.785156 244.300781 166.90625 244.164062 167.136719 C 244.128906 167.121094 244.195312 167.03125 244.117188 167.09375 C 243.976562 167.214844 244.113281 167.199219 244.058594 167.277344 C 243.980469 167.335938 243.765625 167.460938 243.722656 167.597656 C 243.679688 167.496094 243.445312 167.882812 243.222656 168.15625 C 243.332031 168.089844 243.492188 167.898438 243.5625 167.921875 C 243.230469 168.371094 242.828125 168.683594 242.425781 169.144531 C 242.675781 168.785156 243.164062 168.332031 243.484375 168.003906 C 243.382812 168 243.167969 168.273438 243.003906 168.421875 C 243.695312 167.367188 244.789062 165.980469 246.042969 164.613281 C 247.292969 163.242188 248.703125 161.886719 249.972656 160.832031 C 250.039062 160.933594 250.589844 160.515625 250.960938 160.210938 C 250.886719 160.332031 250.964844 160.289062 250.910156 160.417969 C 250.820312 160.460938 250.667969 160.652344 250.472656 160.792969 C 250.683594 160.699219 251.238281 160.136719 251.636719 159.84375 C 251.613281 159.800781 251.472656 159.964844 251.398438 160.011719 C 251.320312 160.03125 251.753906 159.691406 251.804688 159.59375 C 251.457031 159.808594 251.328125 159.945312 251.078125 160.167969 C 251.058594 160.027344 251.964844 159.464844 252.167969 159.214844 C 252.292969 159.136719 252.21875 159.230469 252.132812 159.300781 C 252.570312 158.984375 253.011719 158.648438 253.339844 158.363281 C 253.195312 158.453125 252.773438 158.773438 252.375 159.101562 C 252.582031 158.808594 253.203125 158.460938 253.632812 158.078125 C 253.695312 158.113281 253.578125 158.207031 253.445312 158.308594 C 253.59375 158.273438 253.789062 158.042969 253.722656 158.007812 C 253.886719 157.917969 254.082031 157.753906 254.171875 157.636719 C 253.507812 158.1875 252.6875 158.644531 252.023438 159.21875 C 252.054688 159.230469 252.148438 159.144531 252.21875 159.089844 C 252.191406 159.207031 251.71875 159.488281 251.378906 159.804688 C 251.402344 159.765625 251.441406 159.714844 251.488281 159.664062 C 251.171875 159.84375 250.664062 160.371094 250.351562 160.5625 C 251.992188 159.144531 253.628906 157.765625 255.484375 156.582031 C 255.277344 156.839844 254.675781 157.214844 254.367188 157.515625 C 254.546875 157.414062 255.136719 156.96875 255.359375 156.804688 C 255.097656 157.117188 254.421875 157.46875 254.039062 157.84375 C 256.199219 156.28125 257.960938 155.039062 260.40625 153.488281 C 259.375 154.066406 258.746094 154.527344 257.953125 155.046875 C 257.960938 155.011719 257.992188 154.96875 258.074219 154.914062 C 257.8125 155.078125 257.433594 155.339844 257.046875 155.601562 C 256.667969 155.871094 256.28125 156.140625 256.003906 156.308594 C 256.011719 156.246094 256.265625 156.117188 256.371094 156.027344 C 256.125 156.152344 255.839844 156.34375 255.542969 156.566406 C 256.683594 155.582031 257.945312 154.726562 259.285156 153.769531 C 259.324219 153.785156 259.449219 153.6875 259.429688 153.78125 C 260.976562 152.84375 262.597656 151.929688 264.234375 151.15625 C 265.871094 150.386719 267.527344 149.765625 269.085938 149.394531 C 269.203125 149.355469 269.1875 149.308594 269.304688 149.273438 C 269.769531 149.191406 270.25 149.074219 270.761719 148.984375 C 271.265625 148.871094 271.789062 148.804688 272.316406 148.730469 C 273.367188 148.546875 274.480469 148.503906 275.539062 148.5625 C 275.867188 148.601562 276.207031 148.601562 276.53125 148.609375 C 276.855469 148.617188 277.167969 148.632812 277.425781 148.742188 C 277.859375 148.800781 278.359375 148.839844 278.878906 148.9375 C 279.136719 148.996094 279.402344 149.054688 279.667969 149.117188 C 279.933594 149.179688 280.203125 149.238281 280.460938 149.335938 C 280.976562 149.523438 281.488281 149.679688 281.910156 149.917969 C 282.339844 150.140625 282.714844 150.34375 282.976562 150.570312 L 283.410156 150.8125 C 283.503906 150.914062 283.523438 150.988281 283.667969 151.109375 C 283.824219 151.164062 283.988281 151.273438 284.164062 151.410156 C 284.246094 151.476562 284.339844 151.550781 284.433594 151.628906 C 284.523438 151.710938 284.613281 151.800781 284.710938 151.886719 C 284.785156 151.929688 284.828125 151.921875 284.859375 151.898438 C 284.628906 151.820312 284.746094 151.796875 284.414062 151.558594 C 284.390625 151.496094 284.816406 151.816406 284.984375 151.941406 C 284.832031 151.886719 285.015625 152.121094 284.808594 151.964844 C 284.910156 152.09375 285.050781 152.230469 285.214844 152.386719 C 285.371094 152.550781 285.5625 152.726562 285.785156 152.917969 C 285.695312 152.933594 285.679688 152.828125 285.574219 152.785156 C 285.675781 152.910156 285.742188 153.039062 285.828125 153.167969 C 285.917969 153.296875 286.027344 153.417969 286.207031 153.546875 C 286.03125 153.582031 286.636719 154.261719 286.347656 154.308594 C 286.304688 154.328125 286.472656 154.484375 286.515625 154.5625 C 286.382812 154.554688 286.652344 155.046875 286.386719 155.015625 C 286.339844 154.945312 286.289062 154.902344 286.238281 154.867188 C 286.320312 154.988281 286.363281 155.0625 286.363281 155.0625 C 286.363281 156.5625 286.039062 157.523438 285.558594 158.128906 C 285.539062 158.164062 285.519531 158.195312 285.5 158.230469 C 285.476562 158.277344 285.441406 158.320312 285.394531 158.371094 C 285.351562 158.421875 285.296875 158.480469 285.214844 158.539062 C 285.269531 158.539062 285.351562 158.464844 285.417969 158.410156 C 285.417969 158.460938 285.375 158.492188 285.324219 158.527344 C 285.273438 158.558594 285.210938 158.585938 285.167969 158.628906 C 285.691406 158.363281 286.085938 157.75 286.277344 157.136719 C 286.265625 157.316406 286.125 157.734375 285.902344 158.046875 C 286 157.957031 286.078125 157.816406 286.160156 157.667969 C 286.230469 157.519531 286.308594 157.359375 286.363281 157.21875 C 286.316406 157.519531 286.429688 157.183594 286.503906 157.050781 C 286.285156 157.820312 285.980469 158.316406 285.554688 158.730469 C 285.128906 159.128906 284.539062 159.464844 283.628906 159.53125 C 283.941406 159.53125 284.160156 159.515625 284.410156 159.414062 C 284.472656 159.390625 284.609375 159.421875 284.480469 159.460938 C 284.527344 159.488281 284.707031 159.308594 284.804688 159.371094 C 284.730469 159.480469 284.476562 159.597656 284.199219 159.652344 C 283.917969 159.71875 283.617188 159.738281 283.421875 159.769531 C 283.445312 159.804688 283.59375 159.789062 283.53125 159.855469 C 283.769531 159.84375 283.449219 159.765625 283.808594 159.777344 C 283.5625 159.976562 283.066406 159.878906 282.765625 159.832031 C 282.5 159.796875 282.1875 159.773438 281.828125 159.648438 C 282.003906 159.796875 282.585938 159.871094 282.976562 159.917969 C 283.074219 159.945312 282.941406 159.9375 282.863281 159.929688 C 282.683594 159.914062 282.472656 159.886719 282.25 159.84375 C 282.140625 159.824219 282.027344 159.800781 281.914062 159.773438 L 281.738281 159.726562 L 281.648438 159.699219 L 281.527344 159.660156 C 281.371094 159.601562 281.199219 159.554688 281.0625 159.464844 C 281 159.40625 280.941406 159.351562 280.878906 159.296875 C 280.824219 159.242188 280.769531 159.1875 280.714844 159.136719 C 280.585938 159.011719 280.46875 158.894531 280.375 158.800781 C 280.417969 158.914062 280.496094 159.003906 280.605469 159.101562 C 280.632812 159.125 280.660156 159.152344 280.691406 159.179688 C 280.742188 159.226562 280.796875 159.277344 280.851562 159.328125 C 280.910156 159.378906 280.96875 159.429688 281.027344 159.484375 L 281.074219 159.527344 C 281.09375 159.535156 281.113281 159.542969 281.132812 159.550781 C 281.171875 159.566406 281.210938 159.585938 281.253906 159.601562 C 281.242188 159.609375 281.207031 159.601562 281.164062 159.582031 C 281.140625 159.574219 281.117188 159.566406 281.09375 159.554688 C 281.183594 159.609375 281.292969 159.648438 281.40625 159.699219 C 281.476562 159.730469 281.558594 159.757812 281.632812 159.785156 C 281.691406 159.804688 281.746094 159.824219 281.808594 159.839844 C 282.042969 159.910156 282.308594 159.972656 282.59375 160.015625 C 283.15625 160.097656 283.796875 160.070312 284.296875 159.921875 C 284.597656 159.839844 284.800781 159.707031 285.03125 159.597656 C 285.089844 159.566406 285.167969 159.527344 285.253906 159.480469 C 285.335938 159.433594 285.421875 159.371094 285.507812 159.3125 C 285.675781 159.179688 285.824219 159.023438 285.878906 158.882812 C 286.175781 158.640625 286.214844 158.496094 286.304688 158.242188 C 286.34375 158.253906 286.296875 158.355469 286.359375 158.277344 C 286.476562 158.128906 286.34375 158.171875 286.375 158.085938 C 286.429688 158.011719 286.609375 157.835938 286.589844 157.695312 C 286.628906 157.734375 286.667969 157.644531 286.707031 157.507812 C 286.742188 157.367188 286.761719 157.183594 286.796875 157.027344 C 286.734375 157.125 286.679688 157.347656 286.605469 157.355469 C 286.710938 156.855469 286.855469 156.433594 286.898438 155.902344 C 286.914062 156.089844 286.875 156.332031 286.832031 156.574219 Z M 251.496094 159.488281 C 251.375 159.535156 250.925781 159.851562 250.972656 159.949219 C 251.167969 159.816406 251.359375 159.652344 251.496094 159.488281 Z M 286.175781 153.324219 C 286.089844 153.296875 286.375 153.800781 286.476562 153.890625 C 286.320312 153.671875 286.300781 153.515625 286.175781 153.324219 Z M 243.898438 167.441406 C 243.78125 167.558594 243.679688 167.667969 243.746094 167.695312 C 243.832031 167.59375 243.902344 167.5 243.898438 167.441406 Z M 245.894531 165.367188 C 245.953125 165.359375 246.273438 164.992188 246.113281 165.09375 C 246.160156 165.128906 245.847656 165.328125 245.894531 165.367188 Z M 244.816406 166.648438 C 244.886719 166.617188 245.167969 166.359375 245.183594 166.285156 C 245.003906 166.449219 244.878906 166.539062 244.816406 166.648438 Z M 244.1875 167.324219 C 244.175781 167.222656 244.429688 167.082031 244.441406 167.007812 C 244.589844 166.917969 244.304688 167.214844 244.1875 167.324219 " fill-opacity="1" fill-rule="nonzero"/></g><g clip-path="url(#id2)"><path fill="#262626" d="M 350.667969 229.160156 C 350.621094 228.949219 350.578125 228.738281 350.523438 228.535156 L 350.34375 227.929688 C 350.246094 227.53125 350.066406 227.15625 349.945312 226.785156 C 349.625 226.058594 349.285156 225.382812 348.878906 224.75 C 348.453125 224.132812 348.011719 223.539062 347.492188 223.011719 C 346.460938 221.957031 345.25 221.082031 343.816406 220.441406 L 343.546875 220.3125 L 343.269531 220.207031 C 343.082031 220.136719 342.890625 220.058594 342.699219 219.988281 C 342.308594 219.882812 341.90625 219.722656 341.484375 219.628906 C 341.0625 219.523438 340.628906 219.4375 340.175781 219.363281 C 339.71875 219.289062 339.246094 219.234375 338.738281 219.175781 C 339.472656 218.46875 340.402344 217.992188 341.394531 217.691406 C 341.894531 217.539062 342.410156 217.476562 342.9375 217.40625 C 343.203125 217.375 343.464844 217.386719 343.734375 217.378906 L 344.136719 217.378906 C 344.269531 217.386719 344.402344 217.40625 344.535156 217.417969 C 346.6875 217.617188 348.777344 218.671875 350.3125 220.265625 C 351.085938 221.058594 351.695312 222.003906 352.164062 223 C 352.617188 224.007812 352.871094 225.089844 352.964844 226.164062 C 352.972656 226.433594 352.96875 226.707031 352.964844 226.972656 C 352.964844 227.105469 352.96875 227.238281 352.957031 227.371094 C 352.945312 227.503906 352.921875 227.636719 352.90625 227.769531 C 352.867188 228.035156 352.84375 228.292969 352.785156 228.550781 C 352.726562 228.808594 352.664062 229.0625 352.582031 229.308594 C 352.253906 230.300781 351.753906 231.21875 351.027344 231.933594 C 350.953125 230.917969 350.851562 230.011719 350.667969 229.160156 Z M 250.398438 229.160156 C 250.445312 228.949219 250.488281 228.738281 250.542969 228.535156 L 250.722656 227.929688 C 250.820312 227.53125 251 227.15625 251.121094 226.785156 C 251.441406 226.058594 251.78125 225.382812 252.1875 224.75 C 252.613281 224.132812 253.054688 223.539062 253.574219 223.011719 C 254.605469 221.957031 255.816406 221.082031 257.25 220.441406 L 257.519531 220.3125 L 257.800781 220.207031 C 257.988281 220.136719 258.175781 220.058594 258.371094 219.988281 C 258.757812 219.882812 259.160156 219.722656 259.582031 219.628906 C 260.003906 219.523438 260.4375 219.4375 260.894531 219.363281 C 261.347656 219.289062 261.820312 219.234375 262.328125 219.175781 C 261.59375 218.46875 260.664062 217.992188 259.671875 217.691406 C 259.171875 217.539062 258.65625 217.476562 258.128906 217.40625 C 257.863281 217.375 257.601562 217.386719 257.332031 217.378906 L 256.929688 217.378906 C 256.796875 217.386719 256.664062 217.40625 256.53125 217.417969 C 254.382812 217.617188 252.289062 218.671875 250.753906 220.265625 C 249.980469 221.058594 249.371094 222.003906 248.902344 223 C 248.453125 224.007812 248.195312 225.089844 248.105469 226.164062 C 248.09375 226.433594 248.101562 226.707031 248.101562 226.972656 C 248.105469 227.105469 248.097656 227.238281 248.109375 227.371094 C 248.121094 227.503906 248.144531 227.636719 248.160156 227.769531 C 248.199219 228.035156 248.222656 228.292969 248.28125 228.550781 C 248.339844 228.808594 248.402344 229.0625 248.484375 229.308594 C 248.8125 230.300781 249.316406 231.21875 250.039062 231.933594 C 250.113281 230.917969 250.214844 230.011719 250.398438 229.160156 Z M 345.230469 222.144531 C 344.914062 222.585938 344.59375 223.027344 344.261719 223.464844 L 343.769531 224.125 L 343.523438 224.457031 L 343.261719 224.773438 L 342.195312 226.027344 L 341.65625 226.652344 L 341.085938 227.25 C 340.328125 228.046875 339.5625 228.84375 338.742188 229.582031 L 337.519531 230.703125 C 337.097656 231.0625 336.667969 231.410156 336.246094 231.765625 C 335.136719 232.671875 330.429688 237.863281 330.144531 238.210938 C 329.863281 238.570312 329.574219 238.917969 329.289062 239.273438 C 329.003906 239.625 328.71875 239.980469 328.410156 240.3125 C 326.003906 243.042969 323.21875 245.476562 320.144531 247.523438 C 319.757812 247.777344 319.375 248.039062 318.980469 248.28125 L 317.78125 248.984375 C 316.988281 249.464844 316.148438 249.863281 315.3125 250.28125 C 313.644531 251.109375 311.894531 251.765625 310.113281 252.359375 C 309.675781 252.523438 309.214844 252.621094 308.765625 252.75 L 307.402344 253.109375 C 306.488281 253.304688 305.570312 253.492188 304.648438 253.660156 C 304.640625 253.664062 304.628906 253.664062 304.621094 253.664062 L 303.234375 253.839844 C 302.761719 253.890625 302.296875 253.972656 301.824219 253.988281 L 300.414062 254.070312 L 299.707031 254.113281 C 299.46875 254.121094 299.234375 254.113281 298.996094 254.113281 L 297.582031 254.085938 C 297.34375 254.078125 297.109375 254.082031 296.871094 254.0625 L 296.167969 254.003906 C 295.226562 253.914062 294.28125 253.863281 293.351562 253.683594 L 291.957031 253.449219 C 291.492188 253.375 291.035156 253.242188 290.578125 253.140625 L 289.203125 252.8125 C 288.746094 252.691406 288.304688 252.53125 287.855469 252.390625 L 286.515625 251.953125 C 286.078125 251.789062 285.644531 251.609375 285.207031 251.4375 C 284.773438 251.261719 284.335938 251.089844 283.90625 250.90625 C 283.484375 250.707031 283.066406 250.496094 282.648438 250.289062 L 281.394531 249.667969 C 280.988281 249.445312 280.585938 249.207031 280.1875 248.96875 L 278.992188 248.253906 C 278.59375 248.019531 278.222656 247.738281 277.839844 247.480469 C 277.078125 246.957031 276.3125 246.441406 275.609375 245.847656 L 274.535156 244.984375 L 274 244.546875 C 273.828125 244.398438 273.664062 244.238281 273.496094 244.082031 C 272.828125 243.453125 272.144531 242.847656 271.503906 242.203125 L 269.652344 240.203125 L 269.429688 239.957031 C 269.425781 239.953125 269.421875 239.949219 269.414062 239.941406 L 269.207031 239.6875 L 268.78125 239.160156 C 268.496094 238.804688 262.890625 232.511719 261.816406 231.617188 L 261.171875 231.09375 L 260.855469 230.832031 L 260.546875 230.554688 L 259.328125 229.433594 L 258.121094 228.3125 C 257.726562 227.929688 257.355469 227.519531 256.976562 227.125 L 255.847656 225.925781 L 255.289062 225.324219 L 254.761719 224.695312 C 254.75 224.683594 254.742188 224.671875 254.730469 224.660156 C 254.421875 224.273438 254.90625 223.761719 255.304688 224.050781 C 255.3125 224.058594 255.324219 224.066406 255.332031 224.070312 L 255.976562 224.554688 L 256.648438 225.011719 L 257.976562 225.929688 C 258.421875 226.230469 258.855469 226.542969 259.300781 226.839844 L 260.660156 227.695312 L 262.007812 228.550781 L 262.332031 228.761719 C 262.339844 228.765625 262.34375 228.769531 262.351562 228.773438 L 262.691406 228.964844 L 263.382812 229.359375 C 267.046875 231.5 270.820312 233.378906 274.726562 234.84375 C 282.515625 237.8125 290.738281 239.320312 298.980469 239.289062 C 307.214844 239.25 315.464844 237.753906 323.289062 234.839844 C 331.125 231.941406 338.503906 227.6875 345.230469 222.144531 " fill-opacity="1" fill-rule="nonzero"/></g></svg>